<svg width="24" height="24" viewBox="0 0 24 24" fill="none" xmlns="http://www.w3.org/2000/svg">
<g clip-path="url(#clip0_1_7294)">
<path d="M12 10.586L16.243 6.34299C16.6335 5.95252 17.2665 5.95252 17.657 6.34299C18.0475 6.73345 18.0475 7.36652 17.657 7.75699L13.414 12L17.657 16.243C18.0475 16.6335 18.0475 17.2665 17.657 17.657C17.2665 18.0475 16.6335 18.0475 16.243 17.657L12 13.414L7.75699 17.657C7.36652 18.0475 6.73345 18.0475 6.34299 17.657C5.95252 17.2665 5.95252 16.6335 6.34299 16.243L10.586 12L6.34299 7.75699C5.95252 7.36652 5.95252 6.73345 6.34299 6.34299C6.73345 5.95252 7.36652 5.95252 7.75699 6.34299L12 10.586Z" fill="#09121F"/>
</g>
<defs>
<clipPath id="clip0_1_7294">
<rect width="24" height="24" fill="white"/>
</clipPath>
</defs>
</svg>
